<svg version="1.2" xmlns="http://www.w3.org/2000/svg" viewBox="0 0 200 200" width="200" height="200">
	<style>
		.s0 { fill: #1c7aa6 } 
	</style>
	<path class="s0" d="m5 45l5.74 0.3 11.19 0.91 14.21 1.51 16.03 2.12 16.93 2.72 18.14 3.63 13 3.02 14.52 3.93 12.39 3.93 10.58 3.63 11.49 4.54 8.77 3.93 9.38 4.53 6.65 3.63 6.65 3.93 3.63 2.42 5.14 3.63 4.23 3.32 0.91 0.91v0.61l-8.77 3.62-20.56 8.47-20.56 8.47-11.79 4.83-13.31 5.45-3.02 1.21 0.6-1.21 11.19-11.19h0.61l0.6-1.21h0.61l0.6-1.21h0.61v-0.6h0.6v-0.61h0.6l0.61-1.21h0.6l0.61-1.21 3.32-3.02 4.84-4.84 0.3-0.6h0.61l0.6-1.21h0.61v-0.61l1.51-1.21 1.51-1.51 0.61-0.91-3.03-0.9-6.65-1.21-10.88-1.21-17.84-0.91h-22.98l-2.42-1.21-7.56-4.84-7.86-5.14-5.75-3.63-28.42-18.14-6.04-3.93-5.75-3.63-6.65-4.23-7.86-5.14-3.63-2.12z"/>
	<path class="s0" d="m86.33 46.51h8.47l16.02 0.61 22.08 1.51 22.67 2.11 20.56 2.42 4.24 0.61-0.31 0.6-32.05 11.79-4.83 1.82-3.03-0.91-9.97-3.63-12.7-3.93-14.52-3.93-15.42-3.63-14.81-3.02-2.72-0.6v-0.61l6.65-0.6z"/>
	<path class="s0" d="m112.34 102.15h5.74l12.1 0.9 7.86 0.91 1.21 0.3-0.61 1.21-0.91 0.3-0.3 0.91-2.42 2.12-40.51 40.51-2.42 2.12-1.82 2.12-1.51 1.51-1.21 0.6 0.61-1.81 4.23-9.07 7.86-16.93 5.14-11.19 4.84-10.28 1.81-3.93z"/>
</svg>