<svg version="1.2" xmlns="http://www.w3.org/2000/svg" viewBox="0 0 200 200" width="200" height="200">
	<style>
		.s0 { fill: #6399c7 } 
		.s1 { fill: #2363ee } 
		.s2 { fill: #2463ee } 
		.s3 { fill: #1127d7 } 
		.s4 { fill: #1026d7 } 
		.s5 { fill: #1b8ffb } 
		.s6 { fill: #1d8ff9 } 
		.s7 { fill: #1229d7 } 
		.s8 { fill: #122ad7 } 
		.s9 { fill: #2464ed } 
		.s10 { fill: #1d8ffa } 
		.s11 { fill: #2179f5 } 
		.s12 { fill: #1b8dfb } 
		.s13 { fill: #1f8ff8 } 
		.s14 { fill: #1228d7 } 
		.s15 { fill: #2564ed } 
		.s16 { fill: #1d90fa } 
		.s17 { fill: #2967ea } 
		.s18 { fill: #2178f5 } 
		.s19 { fill: #2279f4 } 
		.s20 { fill: #2279f5 } 
		.s21 { fill: #f6fffe } 
		.s22 { fill: #2c80ed } 
		.s23 { fill: #2577f1 } 
		.s24 { fill: #398de5 } 
		.s25 { fill: #428ede } 
		.s26 { fill: #2171f3 } 
		.s27 { fill: #307dea } 
		.s28 { fill: #2b6eea } 
		.s29 { fill: #2267f0 } 
		.s30 { fill: #4685d9 } 
		.s31 { fill: #397ce0 } 
		.s32 { fill: #2e84ec } 
		.s33 { fill: #1e6ef2 } 
		.s34 { fill: #2268f0 } 
		.s35 { fill: #6098c8 } 
		.s36 { fill: #2363ef } 
		.s37 { fill: #3485e8 } 
		.s38 { fill: #3581e7 } 
		.s39 { fill: #3373e4 } 
		.s40 { fill: #2269f0 } 
		.s41 { fill: #3461d6 } 
		.s42 { fill: #226af1 } 
		.s43 { fill: #3277e6 } 
		.s44 { fill: #4e8ad4 } 
		.s45 { fill: #216af1 } 
		.s46 { fill: #3785e5 } 
		.s47 { fill: #3778e2 } 
		.s48 { fill: #2266f0 } 
		.s49 { fill: #216ff2 } 
		.s50 { fill: #1028d9 } 
		.s51 { fill: #4187dd } 
	</style>
	<path class="s0" d="m84.25 11h10.5l9 1 6.25 1.25 5.75 1.5 7 2.5 5 2.25 6.25 3.25 4.75 3 4.25 3 2.75 2.25 3.5 3 2.25 2.25 2 1.75 1.75 2 2.5 2.75 2.75 3.5 2.5 3.5 3.25 5.25 1.25 2 0.75 1.5-0.25 0.5-2-2.5-2.25-3-3-3.5-5-5-2.75-2.25-3.25-2.5-3.25-2.25-3.75-2.25-4.25-2.5-6-2.75-7-2.5-6.5-1.75-5.75-1-7.25-0.75h-10.75l-7 0.75-7.5 1.5-6 1.75-5.25 2-6 2.75-6 3.5-2.75 1.75-2.75 2-3.25 2.5-3.75 3.25-5 5-2.25 2.75-3 3.75-1.75 2.5-2.75 4.5-2.5 4.5-2 4.25-2.5 6.5-2 7-1.25 6.25-0.75 6.25-0.25 8 0.25 5.5 1 7.5 1.5 7 3 9 2 4.5 2 4 2.5 4.5 2.75 4 2 2.75 2.25 2.75 2.5 2.75 1.75 2 3.5 3.5 2.75 2.25 4 3.25 5.25 3.5 5.25 3 6.5 2.75 7.5 2.75 4.75 1.25 2 0.5v0.25h-3.5l-7.5-1.25-6.25-1.5-7.25-2.25-5-2-4.25-2-5-2.75-5.5-3.5-4-3-2.75-2.25-3-2.75-6-6-2.25-2.75-3-3.75-3.5-5.25-3-5-2.75-5.75-2-4.75-2.75-8.25-1.5-6.75-1-6.75-0.5-7v-3l0.5-9 1-7 2-8 2.25-6.75 2.75-6.25 2.75-5.5 3.25-5.25 3.5-5 3.25-4 2.25-2.5 6.25-6.25 2.75-2.25 3.25-2.5 4.25-3 3.75-2.25 4.5-2.5 6.25-3 6.25-2.25 7-2 6.5-1.25 5.5-0.75z"/>
	<path class="s1" d="m111.5 74.75h8.75l5 0.5 7 1.25 9.5 2.25 7.75 2.25 7.5 2.75 6.25 2.75 3.5 2 2.25 2.25 1 2 0.25 1v6.5l-0.75 6-1.25 6-1.5 5-2 5-2 3.5-2.25 2.75-2 1.5-4 2-2.75 0.75-1.5 0.25h-11l-6.5-1-4.75-1.25-5-1.75-4.75-2.5-4.25-2.5-6-2.5-3.75-2-3.75-2.5-4-3-2.5-2.25-2-1.75-0.5-1h-0.5l-2.25-2.75-1.5-2-2-3.5-1.25-2.75-1-3.5v-4.75l1-3 1.75-2.75 2.25-2.25 3.5-2.25 3.25-1.5 4-1.25 6-1.25z"/>
	<path class="s2" d="m65 37.25l0.75 0.25-2 1.75-3.5 2.75-3.25 3-2.75 2.75-2.75 3.5-2.25 2.75-3.25 5.25-2.5 4.5-2.25 5-2.75 8.25-1.5 7-0.75 6.75v10l0.75 6.25 1.25 6.5 2.25 7.25 2.5 6 3 5.75 3 4.75 3 4 2.25 2.75 2.25 2.5 3.25 3.25 2.75 2.25 2 1.75 5 3.5 6 3.5 5.25 2.5 6 2.25 6.5 1.75 5 1 6 0.75h10.75l6.75-0.75 7-1.5 4.25-1.25 5.5-2 5.75-2.75 5.5-3.25 3.5-2.5 2.5-2 3.25-2.75 5-5 1.75-2 3.25-4.25 2.5-3.75 2.75-4.75 2.5-5.5 2.75-8.25 1.5-5.75 0.5-0.5-0.25 3-0.5 4-1.75 8.5-2 6.75-2 5.25-2 4-3 5.5-3.25 4.75-3.25 4.25-3.75 4-4.5 4.5-2.75 2.25-4.25 3.25-4.25 2.75-4.5 2.5-5.75 2.75-6 2.25-8.5 2.25-6 1-5.25 0.5h-9.25l-6.75-0.75-7.75-1.5-6-1.75-6-2.25-5.25-2.5-4.5-2.5-3.75-2.5-3.5-2.5-2.5-2-5-4.5-1.25-1.25v-0.5h-0.5l-1.75-2-2.25-2.5-3.5-4.75-2.5-3.75-2.75-4.75-2.75-5.75-2.25-5.75-2-7-1.25-6.5-0.5-3.75-0.25-3.5v-8.75l0.5-5.5 1.25-7 1.5-5.75 2.5-7 2.25-5 1.75-3 1.5-2.75 2.25-3.5 3.5-4.75 2.75-3 1.75-2 2.75-2.75 2-1.75 2.5-2.25 4.25-3.25 3.75-2.5z"/>
	<path class="s3" d="m61 118.75h3.75l6.25 0.5 7.25 1.25 6.75 1.75 5.75 2 6.25 2.75 3.5 2.5 2 2 1.5 2.5 0.25 1.25 5.25 0.5 20 2 7.5 1 6.25 1.25 2.75 1 1.25 1 0.25 1-1.75 2-3.25 2.25-5.75 3-4 1.75-5.5 2-5.75 1.5-4.25 0.75-2.75 0.25h-5.75l-7.25-0.75-7-1.5-6.75-2.25-4.25-2-4.25-2.5-3.5-2.5-2.75-2.25-3-2.75-3.25-3.25-2.25-2.75-2.5-3.25-2.75-4.25-2-3.5-0.25-0.5v-2l1.25-1 1.25-0.5z"/>
	<path class="s4" d="m106.75 37.25h6.5l6.5 0.75 5.75 1.25 5 1.5 3.75 1.5 5.25 2.5 5.75 3.75 2.5 2 3.5 3 2.25 2.25 1.75 2 3 3.75 2.75 4 2.25 3.75 1.25 2.5 0.25 1.5-0.75 0.75-3.25 1h-6.25l-7.25-1-7.25-1.5-6-1.75-5.25-2-4.25-2-2.75-2-2.5-2.25-1.25-1.75-0.75-2-5.25-0.75-22.25-2.25-7.25-1-5.25-1.25-2.5-1.25-0.75-0.75 0.25-1.25 1.75-1.75 3.75-2.5 4.25-2.25 7.25-3 6.5-2 6.5-1.25z"/>
	<path class="s3" d="m111.5 74.75h8.75l5 0.5 7 1.25 9.5 2.25 7.75 2.25 7.5 2.75 6.25 2.75 3.5 2 2.25 2.25 1 2 0.25 1v6.5l-0.75 6-1.25 6-1.5 5-2 5-2 3.5-2.25 2.75-2 1.5h-0.75l0.5-1 1.25-1.25 1-1.5 1-3 0.25-0.5h0.5v-0.5h0.5l0.5-2.25 0.5-1.25-0.75-1v-2l-0.75-0.25v-2.75l0.5-1 0.25-2.5-0.25-1.5h-0.5v-0.5h0.5v-0.5h-0.5v-1.25h0.75v-0.5h-0.5l0.25-2.25-0.5-0.25 0.25-3.25 0.25-0.5-0.75-0.25v-2.25l0.75-1.75v-0.75l0.5-0.25-0.25-1.25-0.5-0.5v-2.25l1 0.25-1-1.25-1-0.25-0.25-0.5-3.25-1-3.75-0.75-8.25-1h-12.5l-5 0.75-6.25 1.75-3.75 1.75-3 1.75-4 3-2.75 2.75-1.75 2.5-1.5 3.25-0.5 2.5v3.75l0.75 3.25 1.75 4 2.25 3.25 2.25 2.5 1 1.25h-1.5l-4.5-2-2.75-1.5-3.75-2.5-4-3-2.5-2.25-2-1.75-0.5-1h-0.5l-2.25-2.75-1.5-2-2-3.5-1.25-2.75-1-3.5v-4.75l1-3 1.75-2.75 2.25-2.25 3.5-2.25 3.25-1.5 4-1.25 6-1.25z"/>
	<path class="s5" d="m128.5 85.5h3.5l1.25 0.75 0.5 2.25 1.25 3.5 0.25 2-0.75 7.75-0.25 5.25v4.25l0.75 6-0.25 2.75-0.75 3.75v2.25l-0.5 2.75h-0.5l-0.25 1 0.5 0.5h-0.75l-0.25 0.5-1.25-0.25-2.75-0.5-1.5-0.5-0.25 0.25-2.25-0.25-5.25-2.5-3.25-2-3.5-1.75 0.5-0.5-2.75-2.75-1.75-2.5-1.5-2.5-1.5-3.75-0.5-2.5v-3.75l0.75-3 1.75-3.5 2-2.5 2.75-2.75 4.25-3 2.5-1.5 5-2z"/>
	<path class="s6" d="m65 37.25l0.75 0.25-2 1.75-3.5 2.75-3.25 3-2.75 2.75-2.75 3.5-2.25 2.75-3.25 5.25-2.5 4.5-2.25 5-2.75 8.25-1.5 7-0.75 6.75v10l0.75 6.25 1.25 6.5 2.25 7.25 2.5 6 3 5.75 3 4.75 3 4 2.25 2.75 2.25 2.5 3.25 3.25 2.75 2.25 2 1.75 5 3.5 6 3.5-1 0.5 0.75 2.25h0.75l0.25 1.25-0.25 1.75-1.25 1-1.75 0.25-2.75-0.25-0.5-0.5-1.75-0.75-2.25-1.5-1.75-1v-0.5l-1.25-0.5-1-0.5v-0.5h-0.75l-1.25-1.25-3-2.25v-0.5l-1-0.5-2-1.75-3.5-3.5-2-1.75-2.75-3.5-1.75-2.5-3.75-6-3.75-7.5-2.5-7-1.5-5.5-1-5-1-8.75v-7.75l0.75-7 1.25-6.75 1.5-5.5 2.25-6.25 2.5-5.25 2.5-4.25 2.5-3.75 3-4.25 2.75-3.25 4-4 1-0.5 1.25-1.25 1.25-1v-0.75h-0.75l2.75-2 4.75-3z"/>
	<path class="s7" d="m56.75 42.75l0.5 0.25-0.5 1-2 1.5-0.75 1-1.25 0.75-4.25 4.25-3.25 4.25-2.5 3.75-2.5 4-2.5 4.5-2 4.5-2.5 7.5-1.25 5.25-1 6.25-0.5 5.25v7.75l1 8.75 1.25 6 1.5 5.25 2.25 6.25 2 4.25 2.5 4.5 3 4.75 2 2.75 2.75 3.5 3.75 4 4.25 4.25 2.75 2 0.75 0.75 1.25 1 0.5 0.75 1.5 0.5 1 1 0.75 1.25 0.25 0.5-3-0.25v0.5l1 0.5 0.25 0.75-0.25 0.5-2.25-0.75 0.25 1.25-0.5 0.5 0.5 0.75 1.75 1v0.5h0.75l0.5 0.75 1.5 0.75 1.5 1 0.5 0.25v0.5l1 0.25 0.75 1-1.25-0.25-1.75-0.5-4.25-2.25-3.75-2.5-3.5-2.5-2.5-2-5-4.5-1.25-1.25v-0.5h-0.5l-1.75-2-2.25-2.5-3.5-4.75-2.5-3.75-2.75-4.75-2.75-5.75-2.25-5.75-2-7-1.25-6.5-0.5-3.75-0.25-3.5v-8.75l0.5-5.5 1.25-7 1.5-5.75 2.5-7 2.25-5 1.75-3 1.5-2.75 2.25-3.5 3.5-4.75 2.75-3 1.75-2 2.75-2.75 2-1.75 2.5-2.25 2.5-2z"/>
	<path class="s4" d="m64 63.25h3.5l3.25 1 2.25 1.5 2 2.25 1.25 2.5 0.75 2.5 0.25 3.75-0.5 4-1.5 5-2 4-2.25 4-2.5 3.5-2.25 2.75-3.75 3.75-3.25 2.5-3.75 2.25-1.25 0.5h-1.75l-0.25-0.25-1-7.5v-9.25l1-6.25 1.5-6 1.75-5 1.75-4.25 1.5-2.75 1.5-2.25 1.75-1.5z"/>
	<path class="s8" d="m181.25 110.5h0.25l-0.25 3-0.5 4-1.75 8.5h-0.75v1l-0.75 0.75-0.75 1.5-1.5 3.25-1.75 4-2.25 4.25-2.75 4.25-3.25 4.25-3.5 3.75-6.25 6.25-2.25 1.75-3.5 2.75-2.75 1.75-3.75 2.25-3.75 2-6 2.5-4.5 1.5-3.5 1-4.75 1-6.5 1-3 0.25h-6.5l-3.75-0.25-1-0.25-1.75-0.5-0.25-0.5-1-0.5 0.5-0.5 2.5-1 0.5-1.5-0.5-0.5-0.25-0.75-2.75-1.25-1-0.5-1.25-0.25-0.25-0.75h2.25l7.5 1h10.75l6.75-0.75 7-1.5 4.25-1.25 5.5-2 5.75-2.75 5.5-3.25 3.5-2.5 2.5-2 3.25-2.75 5-5 1.75-2 3.25-4.25 2.5-3.75 2.75-4.75 2.5-5.5 2.75-8.25 1.5-5.75z"/>
	<path class="s9" d="m184.75 70h3.5l3 0.75 2.25 1.25 2.5 2.25 1.75 2.5 1.25 3.25 0.25 2.75-0.75 3.5-1.75 3.5-1 1.25-2.5 2-2.75 1.25-1.75 0.5h-4.25l-3-1-2.5-1.5-2.5-2.5-1.75-3.5-0.5-1.75v-4.5l1.25-3.5 1.5-2 1-1.25 2.5-1.75 3.25-1.25z"/>
	<path class="s10" d="m117.25 58.5h2.5l9 0.75 10.5 1.5 5.75 1.25 5 1.5 5.25 2.25 3.75 2 3.75 2.5 1 0.75 0.25-0.5 0.75 2-0.25 1-1.25 0.75-2.5 0.75h-6.25l-7.25-1-7.25-1.5-6-1.75-5.25-2-4.25-2-2.75-2-2.5-2.25-1.25-1.75z"/>
	<path class="s10" d="m61 118.75h3.75l6.25 0.5 7.25 1.25 6.75 1.75 5.75 2 6.25 2.75 0.75 0.75v0.75l0.75 1.5-0.25 1-1 0.75 0.75 2.25h-0.5v0.5l-4.5-0.25-6-0.75-8.25-1.5-7.25-1.75-5.25-2-4-2-3.5-2.25h-0.75l-0.75-1-0.25-0.5v-2l1.25-1 1.25-0.5z"/>
	<path class="s11" d="m131.25 85h6.25l1 0.5h1v0.5l0.75 0.25v0.75l-0.5 0.25 1 0.5 1 3.25 0.5 2.25-0.5 4-0.25 7v8.25l0.25 3.5-0.25 4.75-0.5 2.25-0.25 4-0.5 4 2 0.75v0.25h-3.75l-5.25-0.75v0.5l0.75 0.25-2.5-0.25-5.75-1.75 1-0.75 4 1h1.25 0.5l0.25-0.25-0.5-0.25 0.75-1h0.5v-2l0.25-1v-2l0.5-3 0.5-2.75-0.5-5.25-0.25-1.5v-4.25l0.5-8.5 0.5-4.75-0.5-2.5-1.5-4.25 0.25-0.75-1.25-0.5-2-0.25v-0.25z"/>
	<path class="s12" d="m59 67.25h0.25l0.5 1.75 0.75 18.25v9l-1 4.25-1.75 3.5-1.75 2.25-1.75 1.5-1 0.5h-0.75l-0.25 0.5-1-7.5v-9.25l1-6.25 1.5-6 1.75-5 1.75-4.25 1.5-2.75z"/>
	<path class="s13" d="m178.25 126h0.5l-0.25 1.75-2 6.5-1.75 4.25-2 4-3.25 5.75-2.75 4-3.25 4.25-3.75 4-4.5 4.5-2.75 2.25-4.25 3.25-4.25 2.75-1.25 0.75h-0.5l-0.25-0.75-2 0.25-0.5 1-1.25 0.5-1 0.5-1.25-0.25v0.5l-1.25 0.75h-0.5l-0.5 0.5-1.5 0.5-2 1.25-2.25 0.75-1.25 0.25-0.75-0.25v0.5h-0.5v-0.5h-0.5v0.5l-0.75-0.25 0.25-1.25 1.5-0.75 2-0.75 1.5-1v-0.5l1-0.5 1-1 2.25-1 3.25-1.75 2-0.75 0.75-0.25v-0.5l2.25-1 2.5-1.5 2.75-1.75 1.25-1.25 3.25-2.25 3.25-2.75 2-1.75 1.75-1.75h0.5l0.5-1 4-4 2.25-2.75 3-4 3.5-6 2.25-4.75 1.25-3 1.5-3 0.75-0.25z"/>
	<path class="s14" d="m186.25 70.25h3.25l2.75 1 2.25 1.5 1.75 1.75 1.75 2.75 1 2.75 0.25 2.75-0.75 3.5-1.75 3.5-1 1.25-2.5 2-2.75 1.25h-2l0.5-1v-0.75h0.5l-0.75-3.25-0.25-3.5v-13.75l-0.25-1-1-0.25z"/>
	<path class="s11" d="m147 165.25l0.5 0.25-2.25 1.5-3.5 2.25-2 0.5v0.5l-1.75 1-2.5 1-2.75 1.5-1.5 0.75h-0.5l-0.25 0.75-1 0.25 0.25 0.75-3.5 1.75-1.75 0.5v1.25l0.5 0.25v-0.5h0.5v0.5h0.5v-0.5l2-0.25 2.25-0.75 2-1.25 1.5-0.5 0.5-0.5 1.75-0.5v-0.5h1.5l1-0.75 1.25-0.5 0.25-0.5 2-0.5 0.25 1.25-5.75 3-6 2.5-4.5 1.5-6.75 1.75-6 1-5.25 0.5h-9.25l-2.75-0.25v-0.25h7.5v-1h2v-0.5l-1.25-0.25-0.5-0.25 0.5-1 3-1.25h1.75l3.5-1.5 7-1.5h0.75l0.25-0.5 4-1 6-1.75 6.25-2.5h0.5v-0.5l5.25-2.5z"/>
	<path class="s15" d="m74.75 120.5h3.5l6.75 1.75 5.75 2 6.25 2.75 0.75 0.75v0.75l0.75 1.5-0.25 1-1 0.75 0.75 2.25h-0.5v0.5l-4.5-0.25-6-0.75-8.25-1.5 0.75-0.5h2l0.5-1v-1.25l1.5-2.5 0.25-1-1.5-2.5-1.5-0.5v-0.5l-2.25-0.75-2-0.25-1.75-0.5z"/>
	<path class="s16" d="m181.25 72h0.5v0.5h0.5l0.5 2.25 0.25 1.75v4l-0.25 5.75 0.75 6-0.5 0.75-1.25 0.25-1.75-0.25-3-2.75-1.5-2.25-1-2.5-0.25-1v-4.5l1.25-3.5 1.5-2 1-1.25 1.25-0.5 1.75-0.5z"/>
	<path class="s17" d="m59 67.25h0.25l0.5 1.75v5h-0.25v-4l-1 0.25-0.5 1.5-0.75 0.75-0.25 1.75h-0.5l-0.75 3.5v0.5h-0.5l-0.75 4.5-0.5 4v5.25l0.75 3.5-0.5 4-0.25 0.75v2.75l0.25 2 1 0.5v1.5l-2 1.25h-0.75l-0.25 0.5-1-7.5v-9.25l1-6.25 1.5-6 1.75-5 1.75-4.25 1.5-2.75z"/>
	<path class="s18" d="m70.5 119.75h2l4.5 0.5-0.75 0.5 0.25 0.25 2 0.25 2.25 1v0.5l1.75 0.5 1.5 2.5-0.5 1.5-1.25 2v1.75l-0.5 0.75h-4l-6.25-1.5-0.5-0.5 2 0.25 2.5 0.25 1-0.25v-0.5h0.5l-0.25-2.75 0.75-1.75 0.5-0.5-0.25-1.5-2.75-1.25-2.75-1.5-1.75-0.25z"/>
	<path class="s18" d="m56.5 74.25l0.25 1v1h-0.5v2l-0.5 1.75-0.25 2.75 0.25 1.5v2.75l0.5 3.5 0.25 2.5-0.25 4.25 0.25 1v4l0.75 2.5-1.75 2h-0.5v-1.25l-1-1-0.25-1.5v-2.75l0.25-0.75 0.5-4.25-0.75-3.25v-6.25l0.75-4.5 0.5-2.5 0.25-0.5h0.5l-0.25-1z"/>
	<path class="s19" d="m69.5 158l1.75 0.25 4.25 2.5-1 0.5 0.75 2.25h0.75l0.25 1.25-0.25 1.75-1.25 1-1.75 0.25-2.75-0.25-0.5-0.5-1.75-0.75-2.25-1.5 0.5-0.25 1.75 0.25 2.25-2.25 0.5-1.5-1-2z"/>
	<path class="s20" d="m181 71.25h0.5v0.5l1.75-0.25 0.75 1.5 0.5 2.5v2l0.25 1.25-0.25 2.5v7.25l0.5 2.75-0.25 2.5h-2l-0.75 0.25-1.5-0.75 0.75-0.5 1.75 0.25 0.25-1.75-0.5-2-0.25-3 0.25-5.75v-4l-0.5-4h-0.5v-0.5l-1.25 0.75-1.25 0.25h-0.75l1.25-1z"/>
	<path class="s21" d="m42.25 155.75l1.25 1 1.75 2 0.75 0.75v0.5h0.5l1.75 2 3.75 3.5 4.25 3.25 4.75 3.25 3.25 2 5.75 3 1.25 0.5v0.25l-1.75-0.25-4.25-1.75-2.5-1.5-1.5-0.75-1.5-1.25-2-1.25-1-0.75-1.5-0.75-1.75-2-2.25-1.75-1.25-1-2.75-2-2.75-3-1.25-1.5-1-2z"/>
	<path class="s21" d="m132.75 70.25l9.25 2.5 5.25 1-1 0.75-1.25 0.5-2.25-0.25-2.75-0.75-1.5-0.75-2.75-0.25-1.75-1.5-1.25-0.75z"/>
	<path class="s22" d="m141.5 173l0.75 0.25v1l-5.75 3-6 2.5h-0.75v-0.75h1l0.5-1 1-0.75 1.5-0.5 0.5-0.5 1.75-0.5v-0.5h1.5l1-0.75 1.25-0.5 0.25-0.5z"/>
	<path class="s23" d="m117.25 58.5h2.5l9 0.75v0.25h-2.75l-4-0.25-1.5 0.5-0.75 0.75 0.25 0.75h0.5l0.75 1.5 0.75 0.5v0.5l1 0.5 0.5 0.75 0.75 0.25v0.5l1 0.25 0.5 0.5-0.25 0.5-1.25-0.5-2.5-1.75-2.5-2.25-1.25-1.75z"/>
	<path class="s24" d="m65 37.25l0.75 0.25-2 1.75-3.5 2.75-3.25 3-4 4 0.5-1 1.75-2 2.25-2.25 0.5-1.5-1.5 1-0.5-0.25 2.75-2 4.75-3z"/>
	<path class="s21" d="m51 171.25l1.25 0.5 2.5 1.25 4.25 2.5 2 1.5 1.25 1 1.5 0.75 2 1.25 0.5 0.5-1.25-0.25-4-2-4.25-2.5-4.25-3-1.5-1.25z"/>
	<path class="s21" d="m60.75 41.25l0.5 0.25-1.75 2.5-2.75 3-1.75 1.75-2 1.25-0.5-0.25 2.25-2.75 4.25-4.25z"/>
	<path class="s25" d="m103.5 183l1.5 0.25v0.5l8-0.25 3.5-0.25v0.25l-5.5 0.75-3 0.25h-9.25l-2.75-0.25v-0.25h7.5z"/>
	<path class="s26" d="m163.75 150.75v0.75l-2.25 2.5-0.75 1.25h-0.5v0.5l-2 1.75-1.25 0.5-0.25 0.75-1.75 1.25-1.25 1.25-1.25 1h-0.5v0.5l-1.5 0.5 1.25-1.25 3.25-2.75 2-1.75 1.75-1.75h0.5l0.5-1z"/>
	<path class="s27" d="m59 67.25h0.25l0.5 1.75v5h-0.25v-4l-1 0.25-0.5 1.5-0.75 0.75-0.25 1.75h-0.5v0.5l-1 0.5 0.75-2.5 2-4z"/>
	<path class="s28" d="m178.25 126h0.5l-0.25 1.75-0.5 1.75h-0.5l-0.25 1.5-1.5 1.75-0.5 1-0.5 1.25-0.5 0.75-0.5-0.25 2.25-5.25 1.5-3 0.75-0.25z"/>
	<path class="s29" d="m50 151.75l1.75 1.5 3.5 3.5 1.5 1 1.25 1.25 3 2.25-0.25 0.5-1.25-0.5v-0.5l-1-0.5-2.5-2-6-6z"/>
	<path class="s30" d="m58.5 41.25l1.25 0.25-0.5 1-1.75 2-4.5 4.5 0.5-1 1.75-2 2.25-2.25 0.5-1.5-1.5 1-0.5-0.25z"/>
	<path class="s31" d="m181.25 110.5h0.25l-0.25 3-0.5 4-0.25 1.25h-0.25l-0.25-0.75-0.75 0.25 0.5-2.5z"/>
	<path class="s32" d="m162.25 156.5h0.5l-0.25 1-2.25 2.5-1.75 1.5-0.25-0.5 1.25-2.25 0.75-0.25 0.5-0.75h0.75l0.25-0.75h0.5z"/>
	<path class="s33" d="m57.5 42.25h0.5l-0.5 1.75-2.75 2.75-2 1h-0.75l1.25-1.25 1-0.5 1.25-1.25 1.25-1z"/>
	<path class="s21" d="m106.25 36.75h7.25l1.25 0.5v0.25h-9.5l-0.25-0.5z"/>
	<path class="s34" d="m147 165.25l0.5 0.25-2.25 1.5-3.5 2.25-3.25 1.25-1.25 0.25 1-0.75 4.25-2z"/>
	<path class="s35" d="m65 37.25l0.75 0.25-2 1.75-1.25 1-0.5-0.25-0.5-0.75z"/>
	<path class="s36" d="m109 182.75l2.5 0.5v0.5h-6.5v-0.25l1.5-0.25h2.5z"/>
	<path class="s37" d="m126.75 129.25l3.5 1-0.5 0.25v0.5l-1.75-0.25-2.25-0.75z"/>
	<path class="s38" d="m122.5 64.25l1 0.5 0.75 0.5v0.5l1 0.25 0.5 0.5-0.25 0.5-1.25-0.5-2.25-1.5 0.5-0.25z"/>
	<path class="s39" d="m117.25 58.5h2.5l-1 0.5 0.25 1.75 0.25 1.25-1.25-1.25z"/>
	<path class="s40" d="m163.75 150.75v0.75l-2.25 2.5-2 1.75v-0.75z"/>
	<path class="s0" d="m181.25 110.5h0.25l-0.25 3-0.25 2.75h-0.25l-0.25-1.5-0.25-1z"/>
	<path class="s41" d="m67.5 175.75l2.25 0.25 1 0.25 0.75 0.75-0.25 0.25-1.75-0.25-2-1z"/>
	<path class="s42" d="m154 160h0.5l-0.5 1-1.5 1.25h-0.5v0.5l-1.5 0.5 1.25-1.25z"/>
	<path class="s43" d="m56.75 71.75l0.5 0.75-0.25 1.75h-0.5v0.5l-1 0.5 0.75-2.5z"/>
	<path class="s44" d="m71.25 177.5l2.75 0.5 0.5 0.25v0.5l1.5 0.25 0.75 0.75-1.25-0.25-4.25-1.75z"/>
	<path class="s45" d="m175.5 131.75h0.5l-0.25 1-0.5 1-0.5 1.25-0.5 0.75-0.5-0.25 1.5-3.5z"/>
	<path class="s46" d="m181 71.25h0.5l0.25 0.75-1.25 0.75-1.25 0.25h-0.75l1.25-1z"/>
	<path class="s47" d="m119.5 181.75h1.25v0.5h-0.5v0.5l-2.5 0.25 0.75-0.25 0.25-0.75z"/>
	<path class="s48" d="m59 68.5l0.75 0.5v5h-0.25l-0.25-4.5h-0.75z"/>
	<path class="s49" d="m54.75 45.25l0.5 0.25-0.5 1.25-2 1h-0.75l1.25-1.25 1-0.5z"/>
	<path class="s50" d="m72 177l2.25 0.75 1.25 0.5v0.5h-1v-0.5l-2.5-0.5z"/>
	<path class="s48" d="m117.25 182.25h1.25v0.5l-0.75 0.25h-2.5v-0.5z"/>
	<path class="s51" d="m125 180.5l1.75 0.25-0.75 0.5-2.5 0.5v-0.75l1.25 0.25z"/>
	<path class="s29" d="m74.75 120.5h2.25l2 0.5v0.25h-2.5l-1.75-0.5z"/>
</svg>