<svg version="1.2" xmlns="http://www.w3.org/2000/svg" viewBox="0 0 200 200" width="200" height="200">
	<style>
		.s0 { fill: #0a090a } 
		.s1 { fill: #d81f25 } 
		.s2 { fill: #090809 } 
		.s3 { fill: #0a0809 } 
		.s4 { fill: #751417 } 
		.s5 { fill: #0f0a0b } 
		.s6 { fill: #fefefe } 
		.s7 { fill: #080708 } 
		.s8 { fill: #c91e23 } 
		.s9 { fill: #cc1e24 } 
		.s10 { fill: #ca1e23 } 
		.s11 { fill: #521b1e } 
		.s12 { fill: #d41f25 } 
		.s13 { fill: #272426 } 
		.s14 { fill: #d92026 } 
		.s15 { fill: #282527 } 
		.s16 { fill: #741417 } 
		.s17 { fill: #070607 } 
		.s18 { fill: #302325 } 
	</style>
	<path class="s0" d="m79.22 4.45h5.7l3.26 1.63 2.45 2.86 1.22 2.44 0.41 3.67-1.23 4.07 0.41 2.85 2.04 4.08 0.4 10.59v24.85h11.82l-0.41-2.04 0.41-9.78h5.7l-0.41-22.81-2.85-2.44-0.81-1.63v-2.85l1.63-2.86 2.44-1.63h4.08l2.85 2.45 0.81 2.44-0.4 3.67-1.63 2.04-1.63 0.4v23.22h11.81v-6.51l0.81-4.08 1.63-2.03 7.74-4.49 2.04-1.22h0.82l0.4-5.29 2.04-3.26 2.45-1.63 2.03-0.41h2.85l3.26 1.63 2.04 2.44 0.81 2.45v3.26l-1.62 3.26-2.45 2.03-2.04 0.82h-3.26l-2.85-1.22-2.44-0.41-6.93 4.07-2.44 1.63-0.41 0.82-0.41 8.14h10.6v4.08l9.37-0.41 4.88-1.63 6.93-3.66 0.41-0.41 0.4-5.71 2.04-4.07 2.85-2.44 2.04-0.82h6.11l3.26 1.63 2.44 2.85 1.23 2.85 0.4 3.67-1.22 3.67-2.85 3.66-3.26 1.63-4.48 0.41-4.07-1.63-2.86-2.04-4.07 2.45-5.7 2.85-3.26 0.81h-10.59v4.49h11.81v9.37h19.15l2.85-4.08 2.85-1.22h4.07l2.45 1.22 2.04 2.45 0.81 2.03v3.67l-1.63 2.85-2.44 2.04-2.45 0.81-3.66-0.4-2.45-1.63-2.04-3.26-19.55-0.41v21.18l10.18-0.4 2.45-2.86 2.04-0.81 3.66 0.41 2.85 2.44 0.41 0.82v3.66l-1.63 2.85-3.26 1.63-3.26-0.4-2.44-2.04-0.82-1.22h-21.99v7.33l10.18 0.41 2.85 1.22 2.85 3.26 2.86 4.89h7.33l3.26 1.63 3.26 3.66 0.81 2.45v4.48l-1.22 3.26-2.44 2.85-3.26 1.63-1.23 0.41h-3.26l-4.48-1.63-2.85-2.85-1.22-2.86v-6.11l2.04-4.48-2.85-4.48-1.63-2.04-0.82-0.4-7.33-0.41h-14.67v28.11l1.63 2.04 4.48 3.66 2.85 2.85 1.63-0.4 0.82-0.41h4.89l2.44 1.63 1.63 2.04 0.82 2.03v2.85l-1.23 2.86-2.03 2.03-2.04 1.23h-4.07l-2.45-1.23-2.44-2.85-0.82-2.44-0.4-4.08-2.86-3.26-5.29-4.88-1.63-2.04-0.41-2.45v-15.48l-2.85 0.41h-4.07l-0.82-0.41v11.82l-0.41 0.41h-11.4l-0.41 11.4-0.41 0.41-3.26 0.41-0.41 11 3.67 1.22 2.85 2.85 1.63 3.67v4.89l-1.63 3.25-2.03 2.45-3.26 1.63-1.23 0.41h-4.07l-3.67-1.63-2.85-2.86-1.63-3.66v-4.48l2.04-4.08 3.26-2.85 2.85-1.22v-11l-4.07-0.41v-10.59l0.4-0.81h-12.22l-0.4-2.86-0.41-8.96h-2.85l-0.82 6.11-3.26 3.67-10.18 5.7-2.04 1.22h-0.81l0.4 2.04v2.85l-0.81 2.85-2.45 3.26-2.85 2.04-1.22 0.41h-5.7l-3.67-2.04-2.85-3.26-0.82-2.04v-4.88l2.45-4.89 3.67-2.45 1.22-0.4h5.7l3.26 1.63 1.22 1.22 1.63-0.41 9.78-5.3 2.85-2.03 0.41-0.82 0.41-4.89h-3.67l-0.41-0.4v-11.82l-25.66 0.41-1.63 2.44-2.45 2.04-1.22 0.41h-4.07l-2.45-1.22-2.44-2.86-0.41-1.22v-4.48l1.63-2.85 2.85-2.04 4.08-0.41 2.44 0.82 2.04 1.63 1.63 2.85h13.85l-0.41-6.92-11.41-0.41-0.4-0.41v-7.74h-8.15l-2.04 2.44-2.44 1.23-3.67-0.41-2.85-2.45-0.82-2.03 0.41-3.26 1.63-2.45 2.04-1.22h3.66l2.45 1.63 1.22 2.04h8.15v-13.85h-16.7l-2.45 3.66-2.44 1.63-1.23 0.41h-4.07l-3.26-1.63-1.63-2.04-1.22-3.25 0.41-3.67 2.44-3.67 4.08-1.63h2.85l3.26 1.63 2.03 2.45 1.23 1.63h17.11v-7.74l11.81-0.41 0.41-7.33-10.19-0.41-3.26-1.22-2.03-2.04-1.63-2.04-2.85-5.7-5.3-0.41-4.07-2.44-2.45-3.67-0.81-2.44v-3.26l1.63-4.08 1.63-2.03 3.25-2.04 1.23-0.41h5.29l3.26 1.63 3.26 3.67 1.22 3.66v3.26l-2.03 4.08-1.63 1.63 0.4 2.44 2.45 4.89 1.63 1.63 1.22 0.41 18.33 0.4-0.41-8.96-2.44-2.85-0.81-2.04v-2.44l2.03-3.26 2.45-1.22h3.26l2.44 1.63 1.22 1.63 0.41 4.07-1.22 2.45-2.45 2.03v8.96h18.74v-21.18l-1.22-3.67-0.81-0.81-2.04 0.41-1.22 0.4h-4.89l-3.67-2.03-2.85-3.26-1.22-3.67 0.41-4.07 2.03-4.08 2.85-2.44z"/>
	<path class="s1" d="m58.03 61.9h11.41l0.41 0.81 0.81-0.81 22.41 0.4 0.41 0.82-0.41 11 12.22-0.41 0.41-11.41 2.04-0.4 21.99 0.4v26.89l-0.4 11.41-11.41 0.41-0.41 11.4-0.4 0.41-8.15 0.41-3.26 0.4-0.41 10.6-2.04 0.4-21.99-0.4 0.4-3.67v-8.15h-11.81v-12.22l-4.08 0.41h-6.51l-1.63-0.82v-13.44-0.82-23.22z"/>
	<path class="s2" d="m79.22 4.45h5.7l3.26 1.63 2.45 2.86 1.22 2.44 0.41 3.67-1.23 4.07 0.41 2.85 2.04 4.08 0.4 10.59v24.85h11.82v12.22l-0.41 0.41h-12.22v-11.82h-22.41l-1.22 0.82v-1.22l-11.41 0.4v23.22l0.82 0.82h-1.22l0.4 13.44 1.23 0.41h10.59v12.22l6.11-0.41h5.7l0.41 0.41v8.15h-0.41l-0.4-7.74h-11l-0.41 11.41h-0.41v-11.82l-25.66 0.41-1.63 2.44-2.45 2.04-1.22 0.41h-4.07l-2.45-1.22-2.44-2.86-0.41-1.22v-4.48l1.63-2.85 2.85-2.04 4.08-0.41 2.44 0.82 2.04 1.63 1.63 2.85h13.85l-0.41-6.92-11.41-0.41-0.4-0.41v-7.74h-8.15l-2.04 2.44-2.44 1.23-3.67-0.41-2.85-2.45-0.82-2.03 0.41-3.26 1.63-2.45 2.04-1.22h3.66l2.45 1.63 1.22 2.04h8.15v-13.85h-16.7l-2.45 3.66-2.44 1.63-1.23 0.41h-4.07l-3.26-1.63-1.63-2.04-1.22-3.25 0.41-3.67 2.44-3.67 4.08-1.63h2.85l3.26 1.63 2.03 2.45 1.23 1.63h17.11v-7.74l11.81-0.41 0.41-7.33-10.19-0.41-3.26-1.22-2.03-2.04-1.63-2.04-2.85-5.7-5.3-0.41-4.07-2.44-2.45-3.67-0.81-2.44v-3.26l1.63-4.08 1.63-2.03 3.25-2.04 1.23-0.41h5.29l3.26 1.63 3.26 3.67 1.22 3.66v3.26l-2.03 4.08-1.63 1.63 0.4 2.44 2.45 4.89 1.63 1.63 1.22 0.41 18.33 0.4-0.41-8.96-2.44-2.85-0.81-2.04v-2.44l2.03-3.26 2.45-1.22h3.26l2.44 1.63 1.22 1.63 0.41 4.07-1.22 2.45-2.45 2.03v8.96h18.74v-21.18l-1.22-3.67-0.81-0.81-2.04 0.41-1.22 0.4h-4.89l-3.67-2.03-2.85-3.26-1.22-3.67 0.41-4.07 2.03-4.08 2.85-2.44z"/>
	<path class="s3" d="m111.4 15.45h4.08l2.85 2.45 0.81 2.44-0.4 3.67-1.63 2.04-1.63 0.4v23.22h11.81v-6.51l0.81-4.08 1.63-2.03 7.74-4.49 2.04-1.22h0.82l0.4-5.29 2.04-3.26 2.45-1.63 2.03-0.41h2.85l3.26 1.63 2.04 2.44 0.81 2.45v3.26l-1.62 3.26-2.45 2.03-2.04 0.82h-3.26l-2.85-1.22-2.44-0.41-6.93 4.07-2.44 1.63-0.41 0.82-0.41 8.14h10.6v4.08l9.37-0.41 4.88-1.63 6.93-3.66 0.41-0.41 0.4-5.71 2.04-4.07 2.85-2.44 2.04-0.82h6.11l3.26 1.63 2.44 2.85 1.23 2.85 0.4 3.67-1.22 3.67-2.85 3.66-3.26 1.63-4.48 0.41-4.07-1.63-2.86-2.04-4.07 2.45-5.7 2.85-3.26 0.81h-10.59v4.49h11.81v9.37h19.15l2.85-4.08 2.85-1.22h4.07l2.45 1.22 2.04 2.45 0.81 2.03v3.67l-1.63 2.85-2.44 2.04-2.45 0.81-3.66-0.4-2.45-1.63-2.04-3.26-19.55-0.41v21.18l10.18-0.4 2.45-2.86 2.04-0.81 3.66 0.41 2.85 2.44 0.41 0.82v3.66l-1.63 2.85-3.26 1.63-3.26-0.4-2.44-2.04-0.82-1.22h-21.99v6.52l-1.23 1.22-0.4-0.41v-7.74l1.22-0.41v-37.88h-31.78l-4.07-0.41-0.41-2.04 0.41-9.78h5.7l-0.41-22.81-2.85-2.44-0.81-1.63v-2.85l1.63-2.86z"/>
	<path class="s2" d="m79.22 4.45h5.7l3.26 1.63 2.45 2.86 1.22 2.44 0.41 3.67-1.23 4.07 0.41 2.85 2.04 4.08v35.85h-19.96l-15.49-0.41v-7.33l-10.59-0.41-3.26-1.22-2.03-2.04-1.63-2.04-2.85-5.7-5.3-0.41-4.07-2.44-2.45-3.67-0.81-2.44v-3.26l1.63-4.08 1.63-2.03 3.25-2.04 1.23-0.41h5.29l3.26 1.63 3.26 3.67 1.22 3.66v3.26l-2.03 4.08-1.63 1.63 0.4 2.44 2.45 4.89 1.63 1.63 1.22 0.41 18.33 0.4-0.41-8.96-2.44-2.85-0.81-2.04v-2.44l2.03-3.26 2.45-1.22h3.26l2.44 1.63 1.22 1.63 0.41 4.07-1.22 2.45-2.45 2.03v8.96h18.74v-21.18l-1.22-3.67-0.81-0.81-2.04 0.41-1.22 0.4h-4.89l-3.67-2.03-2.85-3.26-1.22-3.67 0.41-4.07 2.03-4.08 2.85-2.44z"/>
	<path class="s4" d="m105.7 61.49l35.85 0.41 0.41 3.26v14.66l-0.41 19.96-1.22 0.82h-10.6v10.18l-0.4 1.22-4.08 0.82h-7.33l-0.41 11.41-0.4 0.4h-11.41v11.41l-0.82 0.41h-11l-0.4-0.82-0.41-10.59-11.41-0.41v-0.4h23.22l0.41-10.6 0.41-0.4 3.26-0.41 8.15-0.41 0.4-11.4 0.41-0.41h11.41v-35.04l0.4-3.26-2.85 0.41-21.18-0.41-0.41 1.63v-2.03z"/>
	<path class="s2" d="m141.55 61.9h12.22v9.37h19.15l2.85-4.08 2.85-1.22h4.07l2.45 1.22 2.04 2.45 0.81 2.03v3.67l-1.63 2.85-2.44 2.04-2.45 0.81-3.66-0.4-2.45-1.63-2.04-3.26-19.55-0.41v21.18l10.18-0.4 2.45-2.86 2.04-0.81 3.66 0.41 2.85 2.44 0.41 0.82v3.66l-1.63 2.85-3.26 1.63-3.26-0.4-2.44-2.04-0.82-1.22h-21.99v6.52l-1.23 1.22-0.4-0.41v-7.74l1.22-0.41z"/>
	<path class="s2" d="m79.22 112.41h2.04l0.4 0.41v11.41l11.41 0.4 0.41 0.41v11.41l-0.82 0.41h-11l-0.4-2.86-0.41-8.96h-2.85l-0.82 6.11-3.26 3.67-10.18 5.7-2.04 1.22h-0.81l0.4 2.04v2.85l-0.81 2.85-2.45 3.26-2.85 2.04-1.22 0.41h-5.7l-3.67-2.04-2.85-3.26-0.82-2.04v-4.88l2.45-4.89 3.67-2.45 1.22-0.4h5.7l3.26 1.63 1.22 1.22 1.63-0.41 9.78-5.3 2.85-2.03 0.41-0.82 0.41-4.89h-3.67v-11l0.41-0.81z"/>
	<path class="s0" d="m93.48 135.63l0.4 0.82h11.82v11.81l-0.41 0.41-3.26 0.41-0.41 11 3.67 1.22 2.85 2.85 1.63 3.67v4.89l-1.63 3.25-2.03 2.45-3.26 1.63-1.23 0.41h-4.07l-3.67-1.63-2.85-2.86-1.63-3.66v-4.48l2.04-4.08 3.26-2.85 2.85-1.22v-11l-4.07-0.41v-10.59l0.4-0.81-0.81-0.41z"/>
	<path class="s2" d="m129.73 100.6h11v7.33h1.23l10.18 0.41 2.85 1.22 2.85 3.26 2.86 4.89h7.33l3.26 1.63 3.26 3.66 0.81 2.45v4.48l-1.22 3.26-2.44 2.85-3.26 1.63-1.23 0.41h-3.26l-4.48-1.63-2.85-2.85-1.22-2.86v-6.11l2.04-4.48-2.85-4.48-1.63-2.04-0.82-0.4-4.07-0.41-11-0.41v-0.41l6.52-0.4-3.67-0.82v-0.81l-2.85-0.41h-5.3l-2.04-0.41z"/>
	<path class="s5" d="m58.85 100.19h11v12.22l6.11-0.41h5.7l0.41 0.41v8.15h-0.41l-0.4-7.74h-11l-0.41 11.41h-0.41v-11.82l-25.66 0.41-1.63 2.44-2.45 2.04-1.22 0.41h-4.07l-2.45-1.22-2.44-2.86-0.41-1.22v-4.48l1.63-2.85 2.85-2.04 4.08-0.41 2.44 0.82 2.04 1.63 1.63 2.85h13.85v-7.33z"/>
	<path class="s6" d="m58.03 61.9h11.41l0.41 23.62-0.41 0.41h-11.41l-0.4-0.41v-23.22z"/>
	<path class="s7" d="m81.66 124.63h11.41l0.41 0.41v11.41l-0.82 0.41h-11z"/>
	<path class="s7" d="m97.96 61.49h7.74v6.11l-0.41 5.7-0.41 0.41h-11l-0.4-1.22 0.4-10.19z"/>
	<path class="s8" d="m50.29 139.71l2.86 0.4 2.44 2.04 0.82 2.45v2.44l-1.63 2.44-2.45 1.63-3.67-0.4-2.44-1.63-0.81-2.45v-2.44l1.63-2.45 2.03-1.63z"/>
	<path class="s9" d="m163.95 122.19h3.26l2.45 1.63 0.81 2.85-0.4 3.67-1.63 2.03-1.63 0.82h-3.26l-2.45-1.63-1.22-2.85 0.41-3.26 2.04-2.45z"/>
	<path class="s10" d="m80.44 9.34h3.67l1.63 0.82 1.22 2.04 0.41 3.25-1.23 2.86-2.44 1.63h-4.07l-2.45-2.04-0.81-2.45 0.4-2.85 1.63-2.03z"/>
	<path class="s9" d="m171.7 39.49h4.88l1.63 1.63 1.23 3.26-0.41 2.85-1.63 2.04-1.63 0.81h-3.67l-2.03-2.03-1.23-1.63v-4.08l2.04-2.44z"/>
	<path class="s6" d="m97.96 165.37h3.66l2.45 2.04 0.41 0.81v4.08l-1.63 2.03-1.63 0.82h-3.26l-2.04-1.22-1.22-2.45v-2.85l1.22-2.04z"/>
	<path class="s6" d="m34.41 27.27l3.26 0.41 2.03 1.63 0.82 2.44-0.41 2.85-2.44 2.04-2.86 0.81-2.85-1.22-1.63-3.26 0.41-2.85 2.04-2.44z"/>
	<path class="s11" d="m93.48 36.64h0.4v24.85h2.45l-1.63 0.81h-0.82v11h11l0.41-5.7h0.41v6.11l-0.41 0.41h-12.22v-11.82h-22.41l-1.22 0.82v-1.22l-11.41 0.4-0.4 23.22h-0.41l-0.41-22.81-1.22-0.81 1.63-0.41 0.41-7.33h0.4v7.33h15.49l19.96 0.41z"/>
	<path class="s12" d="m142.77 152.34h2.85l1.63 2.03 0.41 2.85-1.22 2.04-2.45 1.22-2.03-0.4-1.63-1.63-0.41-0.82v-3.26l2.04-1.63z"/>
	<path class="s13" d="m129.73 109.15h7.34l2.85 0.82v0.81l6.92 0.41v0.41l-4.48 0.4 2.45 0.41v0.41h-14.67l-0.41 0.81-0.4-2.85z"/>
	<path class="s4" d="m29.52 86.75h3.66l1.23 1.63 0.4 2.85-2.03 2.44h-3.26l-2.04-2.03-0.41-1.63 1.23-2.45z"/>
	<path class="s6" d="m146.84 25.23h3.26l1.63 1.63 0.41 2.04-0.81 2.03-2.45 1.63-2.85-0.81-1.22-2.04 0.41-3.26z"/>
	<path class="s6" d="m18.52 68.41h2.85l2.04 1.63v3.67l-1.63 1.63h-3.26l-1.63-1.22-0.41-3.67z"/>
	<path class="s14" d="m68.22 31.34l2.44 0.41 1.23 2.44-0.82 2.45-0.81 1.22h-2.86l-2.03-1.22-0.41-2.85 2.04-2.04z"/>
	<path class="s6" d="m34.81 107.12h2.86l1.62 1.22 0.41 2.04-0.81 2.03-1.22 1.22h-2.45l-2.04-2.44v-2.44z"/>
	<path class="s6" d="m179.44 70.04l3.25 0.41 1.23 2.04-0.41 2.44-2.04 1.63-2.85-0.41-1.22-1.62v-2.45z"/>
	<path class="s13" d="m140.73 99.78h23.22l-1.62 0.82h-20.37v6.52l-1.23 1.22-0.4-0.41v-7.74z"/>
	<path class="s15" d="m57.63 54.16h0.4v7.33h11.82v0.41l-11.82 0.4-0.4 23.22h-0.41l-0.41-22.81-1.22-0.81 1.63-0.41z"/>
	<path class="s4" d="m68.22 31.34l2.44 0.41 1.23 2.44-0.82 2.45-0.81 1.22h-2.86l-2.03-1.22-0.41-2.85 2.04-2.04zm-0.82 0.81l-1.63 1.63 0.41 2.04 1.22 0.82 2.85-0.41 0.41-1.63-0.41-2.04z"/>
	<path class="s14" d="m30.33 87.15h2.45l0.81 0.82-0.41 2.04-2.03-0.41v1.63l-1.23 0.41-1.22-0.82v-2.44z"/>
	<path class="s4" d="m141.14 153.15l0.82 0.41-1.23 1.22 0.41 3.26 3.26 0.41h1.63v-1.23h0.81v-2.85l0.82 1.22-0.41 2.45-2.03 2.04-2.45 0.4-2.04-1.22-0.81-1.63v-3.26z"/>
	<path class="s6" d="m168.84 96.12l2.45 0.4 0.41 2.04-0.82 1.63h-2.44l-0.41-0.41v-2.85z"/>
	<path class="s16" d="m69.85 61.49l22.81 0.41v0.4h-22l-1.22 0.82z"/>
	<path class="s6" d="m113.03 19.12l1.63 0.41 0.41 2.44-0.41 0.82h-2.44l-0.82-0.82 0.41-2.03z"/>
	<path class="s15" d="m66.18 40.71h0.41l0.41 3.26 0.4 0.82h-0.81v0.81h0.81v4.07h-1.22z"/>
	<path class="s17" d="m80.85 191.85h2.44l-0.81 0.41v1.63h-1.22v6.11h-0.41z"/>
	<path class="s18" d="m57.22 99.38l1.63 1.22-1.63 0.41-11.41-0.41v-0.41h11.41z"/>
	<path class="s17" d="m110.18 196.74h2.44l-0.81 2.04-1.63 0.81z"/>
</svg>