<?xml version="1.0" encoding="utf-8"?>
<svg version="1.1" viewBox="0 0 2048 1350" width="652" height="430" xmlns="http://www.w3.org/2000/svg" xmlns:bx="https://boxy-svg.com">
  <defs>
    <bx:export>
      <bx:file format="svg"/>
    </bx:export>
  </defs>
  <path transform="translate(1167,646)" d="m0 0h153l2 1v43l-32 1h-106l-3-1v116l-1 1-41 1-3-1-1-13v-146l1-1z" style="fill: rgb(255, 255, 255);"/>
  <path transform="translate(971,532)" d="m0 0h82v44l-1 1-87 1-18 4-12 5-11 6-11 9-7 8-9 14-6 14-3 12-2 31-1 1-14 1h-30l-7-1v-21l4-26 5-16 9-19 10-15 11-12 10-9 16-11 21-10 19-6 21-4z" style="fill: rgb(255, 255, 255);"/>
  <path transform="translate(1e3 662)" d="m0 0h49l1 1-1 18-4 24-5 15-10 21-10 14-14 15-12 10-13 8-19 9-24 7-13 2-14 1h-80l-1-1v-42l1-1 62-1 23-1 12-2 14-4 16-8 14-11 9-11 9-17 5-17 2-26z" style="fill: rgb(255, 255, 255);"/>
  <path transform="translate(1422,532)" d="m0 0h224v46l-29 1h-92l-103-1z" style="fill: rgb(255, 255, 255);"/>
  <path transform="translate(1136,532)" d="m0 0h206v45h-206l-1-1v-43z" style="fill: rgb(255, 255, 255);"/>
  <path transform="translate(1510,622)" d="m0 0h48l1 1v183l-1 1h-48l-1-1v-183z" style="fill: rgb(254, 254, 254);"/>
  <path transform="translate(681,589)" d="m0 0h17l14 3 12 5 2 1-1 8-9 17-9 10-7 7-16 9-15 5-4 1h-18l-16-3-13-5-2-2 1-4 5-12 7-10 9-10 7-6 16-9 13-4z" style="fill: rgb(255, 255, 255);"/>
  <path transform="translate(433,589)" d="m0 0h16l16 4 17 9 12 11 7 8 6 10 5 12v3l-12 5-18 4h-17l-12-3-12-5-12-7-9-8-10-13-8-17 1-4 9-4 12-4z" style="fill: rgb(255, 255, 255);"/>
  <path transform="translate(539,718)" d="m0 0 4 1 6 15 3 14v15l-4 18-8 16-8 11-8 8-11 7-11 5-5-1-4-8-3-9-2-9v-22l3-12 5-12 9-13 7-8 13-9z" style="fill: rgb(255, 255, 255);"/>
  <path transform="translate(588,718)" d="m0 0 12 5 11 7 11 10 10 14 6 15 3 15v14l-3 14-5 13-2 4-5-1-17-9-10-9-9-10-8-15-4-12-1-7v-21l4-16 5-10z" style="fill: rgb(255, 255, 255);"/>
  <path transform="translate(630,505)" d="m0 0 4 2 5 16 2 10v12l-3 17-7 16-7 10-5 6-14 11-14 7-6 1-4-8-4-15-1-15 2-13 4-13 8-14 7-9h2l2-4 10-8 14-7z" style="fill: rgb(255, 255, 255);"/>
  <path transform="translate(497,505)" d="m0 0 13 5 10 6 10 9 8 9 7 12 5 14 2 12v15l-5 19-3 6-2 1-14-5-13-9-9-9-9-13-6-14-3-14v-20l5-18z" style="fill: rgb(255, 255, 255);"/>
  <path transform="translate(648,679)" d="m0 0h14l19 5 12 6 11 8v2l3 1 11 14 7 14-1 5-15 5-15 3h-13l-14-3-12-5-11-7-10-9-8-10-8-16 1-4 6-4 16-4z" style="fill: rgb(255, 255, 255);"/>
  <path transform="translate(467,679)" d="m0 0h13l17 3 12 5 2 3-4 10-5 9-9 11-14 11-15 7-10 3-7 1h-11l-20-4-10-4-3-2 2-7 7-12 12-14 10-8 14-7z" style="fill: rgb(255, 255, 255);"/>
</svg>