<svg version="1.2" xmlns="http://www.w3.org/2000/svg" viewBox="0 0 200 200" width="200" height="200">
	<style>
		.s0 { fill: #fefefe } 
		.s1 { fill: #202021 } 
	</style>
	<path class="s0" d="m97.67 20h6.22l10.73 1.13 7.34 2.26 2.26 1.69h-12.99l-11.86 1.7-10.17 3.39-6.21 3.95-3.39 2.82-3.95 5.65-2.26 4.52-2.26 9.03v6.78l1.7 9.04 3.95 7.9 4.52 5.65 7.34 7.34 6.21 5.08 9.04 7.35 6.21 5.08 9.03 7.34 7.91 6.78 8.47 7.9 4.52 6.21 2.26 4.52 1.13 5.09v7.9l-1.13 5.65-3.39 6.21-2.82 3.39-6.22 3.95-6.77 2.83-7.34 1.69-4.52 0.57h-10.73l-10.73-1.7-8.47-2.26-10.73-3.95-9.04-4.52-7.9-5.08-7.35-6.21-6.77-6.78-6.22-8.47-5.08-9.6-3.95-11.3-1.7-7.9-0.56-4.52v-15.25l1.69-10.73 2.26-8.47 5.09-11.86 5.64-9.04 4.52-5.64 5.08-5.65 6.22-5.08 6.21-4.52 7.9-4.52 10.17-3.95 9.6-2.26z"/>
	<path class="s1" d="m112.92 29.6h8.47l8.47 1.13 8.48 2.82 9.6 5.09 7.34 5.64 5.08 5.09 6.21 8.47 5.09 9.6 3.95 11.86 1.69 8.47 0.57 5.08v13.55l-1.7 10.73-2.82 9.61-3.95 8.47-3.39 6.21-5.65 7.34-6.78 7.34-2.26 1.13v-7.91l-1.12-7.9-2.83-7.34-4.52-6.78-5.64-6.21-4.52-3.96-9.04-7.34-9.6-7.34-9.03-7.34-6.22-5.08-7.34-6.78-5.64-5.65-5.09-7.9-1.69-5.09v-9.03l2.26-7.34 3.95-6.22 6.21-5.08 9.04-4.52 6.78-2.25z"/>
</svg>